<?xml version="1.0" encoding="UTF-8" standalone="no"?>
<svg
   xmlns:dc="http://purl.org/dc/elements/1.1/"
   xmlns:cc="http://creativecommons.org/ns#"
   xmlns:rdf="http://www.w3.org/1999/02/22-rdf-syntax-ns#"
   xmlns:svg="http://www.w3.org/2000/svg"
   xmlns="http://www.w3.org/2000/svg"
   xmlns:sodipodi="http://sodipodi.sourceforge.net/DTD/sodipodi-0.dtd"
   xmlns:inkscape="http://www.inkscape.org/namespaces/inkscape"
   version="1.1"
   id="svg2"
   xml:space="preserve"
   width="1333.3333"
   height="1066.6667"
   viewBox="0 0 1333.3333 1066.6667"
   sodipodi:docname="campr-13.eps"><metadata
     id="metadata8"><rdf:RDF><cc:Work
         rdf:about=""><dc:format>image/svg+xml</dc:format><dc:type
           rdf:resource="http://purl.org/dc/dcmitype/StillImage" /></cc:Work></rdf:RDF></metadata><defs
     id="defs6" /><sodipodi:namedview
     pagecolor="#ffffff"
     bordercolor="#666666"
     borderopacity="1"
     objecttolerance="10"
     gridtolerance="10"
     guidetolerance="10"
     inkscape:pageopacity="0"
     inkscape:pageshadow="2"
     inkscape:window-width="640"
     inkscape:window-height="480"
     id="namedview4" /><g
     id="g10"
     inkscape:groupmode="layer"
     inkscape:label="ink_ext_XXXXXX"
     transform="matrix(1.3333333,0,0,-1.3333333,0,1066.6667)"><g
       id="g12"
       transform="scale(0.1)"><path
         d="m 5174.71,4775.75 c 0,0 -684.65,-1536 768,-2381.39 0,0 -1369.3,208.37 -1137.11,2167.07 0,0 -791.82,36.47 -1291.91,-363.17 0,0 -95.25,-865.82 381.03,-1260.44 0,0 -631.07,188.82 -642.98,1456.91 0,0 814.92,571.53 1922.97,381.02"
         style="fill:#323133;fill-opacity:1;fill-rule:nonzero;stroke:none"
         id="path14" /><path
         d="m 4533.32,2996.25 -148.28,374.2 c 111.75,-14 183.27,-54.7 217.12,-140.12 33.46,-84.44 6.27,-172.23 -68.84,-234.08 z m -545.78,682.4 c -24.87,62.75 -16.34,147.35 64.92,209.5 L 4183,3558.72 c -107.58,12.88 -165.71,44.84 -195.46,119.93 z m 780.29,-366.74 c -70.03,176.74 -214.92,237.99 -454.29,239.2 -0.04,0.03 -0.07,0.05 -0.11,0.08 l -154.56,390.03 c 65.5,21.84 122.37,27.41 167.58,26.93 41.78,-0.44 75.66,33.74 75.66,75.52 v 0 c 0,40.06 -32.13,72.82 -72.19,73.29 -58.69,0.68 -128.89,-8.66 -211.82,-38.37 l -58.92,150.19 c -13.27,33.49 -51.07,50.01 -84.67,36.99 v 0 c -33.96,-13.15 -50.7,-51.46 -37.28,-85.32 l 62.03,-158.05 c -169.28,-101.21 -236.23,-271.12 -171.54,-434.38 64.65,-163.14 212.93,-208.33 427.47,-211.49 L 4428.6,2938.9 c -74.39,-26.75 -151.16,-35.66 -219.85,-32.18 -43.61,2.2 -79.58,-33.87 -78.12,-77.51 v 0 c 1.29,-38.69 31.74,-70.12 70.37,-72.48 80.8,-4.93 178.93,9.49 266.96,42.63 l 47.43,-116.91 17.07,-43.07 c 12.23,-30.87 47.02,-46.08 78.05,-34.24 3.73,1.42 7.46,2.87 11.18,4.35 l 0.28,0.11 c 30.95,12.28 46.45,47.73 34.45,78.79 l -0.04,0.1 -16.74,42.24 -50.09,123.63 c 189.35,113.72 239.86,302.15 178.28,457.55"
         style="fill:#323133;fill-opacity:1;fill-rule:nonzero;stroke:none"
         id="path16" /><path
         d="m 5962.49,4896.45 c -991.94,529.27 -1945.24,242.98 -1945.24,242.98 -40.58,-126.46 -70.86,-243.69 -92.79,-352.46 84.16,23.64 174.48,44.89 270.32,61.99 5.89,14.01 9.35,21.6 9.35,21.6 600.39,222.11 1340.57,-61.5 1340.57,-61.5 -836.31,-1786.33 398.01,-2414.7 398.01,-2414.7 -1113.13,1259.29 19.78,2502.09 19.78,2502.09"
         style="fill:#4a8a32;fill-opacity:1;fill-rule:nonzero;stroke:none"
         id="path18" /><path
         d="m 6748.26,4763.31 c -775.2,814.34 -1770.17,842.33 -1770.17,842.33 -79.16,-108.5 -145.41,-211.37 -200.8,-308.69 87.31,-3.5 179.89,-11.2 276.52,-24.55 10.9,12.52 17.15,19.24 17.15,19.24 639.77,22.06 1253.23,-479.91 1253.23,-479.91 -1355.6,-1432.74 -381.48,-2417.37 -381.48,-2417.37 -660.69,1545.43 805.55,2368.95 805.55,2368.95"
         style="fill:#f28114;fill-opacity:1;fill-rule:nonzero;stroke:none"
         id="path20" /></g></g></svg>
